<svg width="48" height="45" viewBox="0 0 48 45" fill="none" xmlns="http://www.w3.org/2000/svg">
<path d="M14.1432 31.5639L11.0048 31.3107L9.78978 28.3746C9.5366 27.7673 8.92926 27.3623 8.27105 27.3623C7.61283 27.3623 7.00551 27.7673 6.75232 28.3746L5.53731 31.3107L2.39888 31.5639C1.74069 31.6144 1.18388 32.0702 0.931041 32.7281C0.728709 33.3862 0.93104 34.0441 1.4374 34.5L3.86713 36.5756L3.15845 39.6635C2.90527 40.3216 3.15845 40.9795 3.71531 41.3845C4.27216 41.7895 4.98084 41.7895 5.53767 41.435L8.27105 39.7645L11.0044 41.435C11.2576 41.5868 11.5613 41.6882 11.8649 41.6882C12.2195 41.6882 12.5736 41.5868 12.8268 41.3845C13.3837 40.9795 13.6369 40.3213 13.485 39.6635L12.7763 36.5756L15.2061 34.5C15.7124 34.0445 15.9148 33.3863 15.7124 32.7281C15.4088 32.0702 14.8519 31.6148 14.1432 31.5639ZM11.5108 35.2595C11.0553 35.6645 10.8526 36.2718 10.954 36.93L11.6626 39.866L9.08104 38.2969C8.82786 38.145 8.52419 38.0437 8.22052 38.0437C7.91686 38.0437 7.61318 38.145 7.36001 38.2969L4.77841 39.866L5.48709 36.93C5.63893 36.3226 5.43659 35.715 4.93024 35.2595L2.65237 33.2853L5.63893 33.0321C6.24628 32.9816 6.80314 32.5766 7.05633 32.0197L8.22053 29.2355L9.38474 32.0197C9.63791 32.5766 10.1439 32.9816 10.8021 33.0321L13.7887 33.2853L11.5108 35.2595Z" fill="#00A0C1"/>
<path d="M30.0885 34.0444L26.9501 33.7407L25.7351 30.8551C25.4819 30.2478 24.8746 29.8428 24.2164 29.8428C23.5581 29.8428 22.9508 30.2478 22.6976 30.8551L21.4826 33.7911L18.3442 34.0443C17.686 34.0948 17.1292 34.5507 16.8764 35.2085C16.674 35.8667 16.8764 36.5246 17.3827 36.9805L19.8124 39.056L19.1038 42.1439C18.9519 42.8021 19.2051 43.46 19.762 43.865C20.3188 44.27 21.0275 44.27 21.5843 43.9155L24.3177 42.245L27.0511 43.9155C27.3042 44.0673 27.6079 44.1686 27.9116 44.1686C28.2661 44.1686 28.6203 44.0673 28.8735 43.865C29.4303 43.4599 29.6835 42.8017 29.5317 42.1439L28.823 39.056L31.2527 36.9805C31.7591 36.5249 31.9614 35.8668 31.7591 35.2085C31.3541 34.4998 30.7971 34.0949 30.0885 34.0444ZM27.4565 37.6891C27.001 38.0941 26.7983 38.7015 26.8996 39.3092L27.6083 42.2452L25.0267 40.676C24.7735 40.5242 24.4699 40.4229 24.1662 40.4229C23.8625 40.4229 23.5589 40.5242 23.3057 40.676L20.7241 42.2452L21.4328 39.3092C21.5846 38.7018 21.3823 38.0942 20.8759 37.6387L18.598 35.6644L21.5846 35.4113C22.192 35.3608 22.7488 34.9558 23.002 34.3989L24.1662 31.6147L25.3304 34.3989C25.5836 34.9558 26.0896 35.3608 26.7478 35.4113L29.7344 35.6644L27.4565 37.6891Z" fill="#00A0C1"/>
<path d="M46.0338 31.5639L42.8954 31.3107L41.6804 28.3746C41.4272 27.7673 40.8199 27.3623 40.1617 27.3623C39.5035 27.3623 38.8961 27.7673 38.6429 28.3746L37.4279 31.3107L34.2895 31.5639C33.6313 31.6144 33.0745 32.0702 32.8217 32.7281C32.6193 33.3862 32.8217 34.0441 33.328 34.5L35.7578 36.5756L35.0491 39.6635C34.8972 40.3216 35.1504 40.9795 35.7073 41.3845C36.2641 41.7895 36.9728 41.7895 37.5296 41.435L40.263 39.7645L42.9964 41.435C43.2496 41.5868 43.5532 41.6882 43.8569 41.6882C44.2114 41.6882 44.5656 41.5868 44.8188 41.3845C45.3756 40.9795 45.6288 40.3213 45.477 39.6635L44.7683 36.5756L47.198 34.5C47.7044 34.0445 47.9067 33.3863 47.7044 32.7281C47.2994 32.0702 46.7424 31.6148 46.0338 31.5639ZM43.4014 35.2595C42.9459 35.6645 42.7433 36.2718 42.8446 36.93L43.5533 39.866L40.9717 38.2969C40.7185 38.145 40.4148 38.0437 40.1112 38.0437C39.8075 38.0437 39.5038 38.145 39.2506 38.2969L36.669 39.866L37.3777 36.93C37.5296 36.3226 37.3272 35.715 36.8209 35.2595L34.543 33.2853L37.5296 33.0321C38.1369 32.9816 38.6938 32.5766 38.947 32.0197L40.1112 29.2355L41.2754 32.0197C41.5285 32.5766 42.0345 32.9816 42.6928 33.0321L45.6793 33.2853L43.4014 35.2595Z" fill="#00A0C1"/>
<path d="M48.464 22.1993L47.9072 17.3904C47.6035 14.7075 45.6797 12.5306 43.1995 11.7209C44.6169 10.5567 45.5788 8.73431 45.5788 6.76008C45.5788 3.21667 42.6932 0.331076 39.1498 0.331076C35.6063 0.331076 32.7207 3.21667 32.7207 6.76008C32.7207 8.78475 33.6318 10.5567 35.1 11.7209C33.2776 12.2777 31.7589 13.6446 30.9488 15.3656C30.2401 14.7583 29.4301 14.3024 28.5191 13.9987C29.9869 12.8345 30.8983 11.0122 30.8983 9.03795C30.8983 5.49454 28.0127 2.60895 24.4693 2.60895C20.9259 2.60895 18.0403 5.49454 18.0403 9.03795C18.0403 11.0626 18.9513 12.8345 20.4195 13.9987C19.5085 14.2519 18.6985 14.7074 18.0403 15.3148C17.2303 13.5429 15.7115 12.2269 13.8892 11.6701C15.357 10.5059 16.2684 8.68351 16.2684 6.70928C16.2684 3.16587 13.3828 0.280273 9.83935 0.280273C6.29595 0.280273 3.41035 3.16587 3.41035 6.70928C3.41035 8.73395 4.32136 10.5059 5.78956 11.6701C3.30902 12.4293 1.38559 14.6061 1.08195 17.3396L0.525098 22.1485C0.272271 23.2622 0.980961 24.2746 1.99366 24.4773C4.4742 24.9836 7.05579 25.2873 9.73873 25.2873C11.5611 25.2873 13.333 25.1355 15.0541 24.8823C15.1046 25.7933 15.7627 26.6033 16.6741 26.806C19.1547 27.3123 21.7363 27.616 24.4192 27.616C27.0516 27.616 29.6836 27.3628 32.1643 26.806C33.0753 26.6037 33.7334 25.7937 33.7843 24.8823C35.5054 25.1355 37.3277 25.2873 39.1501 25.2873C41.7825 25.2873 44.4145 25.0341 46.8952 24.4773C47.8567 24.2746 48.5654 23.2623 48.464 22.1994L48.464 22.1993ZM34.4419 6.75981C34.4419 4.17821 36.5175 2.10264 39.0991 2.10264C41.6807 2.10264 43.7562 4.17821 43.7562 6.75981C43.7562 9.34141 41.6807 11.417 39.0991 11.417C36.5175 11.417 34.4419 9.34141 34.4419 6.75981ZM19.7111 9.08821C19.7111 6.50661 21.7866 4.43104 24.3682 4.43104C26.9498 4.43104 29.0254 6.50661 29.0254 9.08821C29.0254 11.6698 26.9498 13.7454 24.3682 13.7454C21.8372 13.7457 19.7111 11.6702 19.7111 9.08821ZM5.08151 6.75981C5.08151 4.17821 7.15707 2.10264 9.73867 2.10264C12.3203 2.10264 14.3958 4.17821 14.3958 6.75981C14.3958 9.34141 12.3203 11.417 9.73867 11.417C7.15707 11.417 5.08151 9.34141 5.08151 6.75981ZM2.39858 22.7562C2.19624 22.7562 2.0949 22.6043 2.14575 22.4016L2.7026 17.5927C3.00628 15.0616 5.13234 13.1887 7.6634 13.1887H11.7128C13.9907 13.1887 15.9649 14.7579 16.5218 16.9348C16.0154 17.7448 15.6613 18.7067 15.5094 19.7191L15.1044 23.1107C11.055 23.7685 6.49925 23.6672 2.39847 22.7562L2.39858 22.7562ZM31.759 25.0846C27.0514 26.0969 21.7359 26.0969 17.0281 25.0846C16.8763 25.0341 16.775 24.8822 16.775 24.73L17.3318 19.9211C17.6355 17.39 19.7616 15.5171 22.2926 15.5171H26.4438C28.9748 15.5171 31.1009 17.39 31.4046 19.9211L31.9614 24.73C32.0123 24.8822 31.9109 25.0846 31.7591 25.0846H31.759ZM46.4392 22.7562C42.3389 23.6167 37.7323 23.7181 33.5307 23.0598L33.1762 19.7187C33.0748 18.7064 32.7207 17.795 32.2143 16.9854C32.7711 14.8088 34.7454 13.1888 37.0741 13.1888H41.1236C43.6546 13.1888 45.7807 15.0617 46.0844 17.5927L46.6412 22.4017C46.7429 22.6043 46.6415 22.7562 46.4392 22.7562Z" fill="#00A0C1"/>
</svg>
