<svg width="48" height="45" viewBox="0 0 48 45" fill="none" xmlns="http://www.w3.org/2000/svg">
<g clip-path="url(#clip0_2_77)">
<path d="M24.3406 20.802C28.6448 20.802 31.9925 17.3066 31.9925 13.0169C31.9925 8.7271 28.4854 5.39062 24.1812 5.39062C19.877 5.39062 16.5293 8.88598 16.5293 13.0169C16.5293 17.3066 20.0364 20.802 24.3406 20.802ZM24.1812 8.56822C24.3406 8.56822 24.3406 8.56822 24.1812 8.56822C26.7318 8.56822 28.8042 10.6337 28.8042 13.1757C28.8042 15.7178 26.7318 17.6244 24.1812 17.6244C21.6306 17.6244 19.7176 15.5589 19.7176 13.1757C19.7176 10.6337 21.79 8.56822 24.1812 8.56822Z" fill="#00A0C1"/>
<path d="M47.9335 19.8492C44.9046 17.1482 40.9193 15.7183 36.7745 15.8772H35.4992C35.1804 17.1482 34.7021 18.2604 34.0645 19.2137C35.0209 19.0548 35.818 19.0548 36.7745 19.0548C39.8034 18.8959 42.8323 19.8492 45.2235 21.5969V33.0362H48.4118V20.3258L47.9335 19.8492Z" fill="#00A0C1"/>
<path d="M33.1088 5.70826C33.9058 3.8017 36.1376 2.84842 38.21 3.64282C40.123 4.43722 41.0795 6.66154 40.2824 8.72697C39.6448 10.1569 38.21 11.1102 36.7753 11.1102C36.4565 11.1102 35.9782 11.1102 35.6594 10.9513C35.8188 11.7457 35.8188 12.5401 35.8188 13.1756V14.1289C36.1376 14.1289 36.4565 14.2878 36.7753 14.2878C40.7607 14.2878 43.949 11.1102 43.949 7.29706C43.949 3.32506 40.7607 0.147461 36.9347 0.147461C34.3841 0.147461 32.1523 1.4185 30.877 3.64282C31.674 4.11946 32.4711 4.75498 33.1088 5.70826Z" fill="#00A0C1"/>
<path d="M14.9352 19.3719C14.2975 18.4186 13.8193 17.3065 13.5005 16.0354H12.2252C8.08037 15.8765 4.09501 17.3065 1.06613 19.8485L0.587891 20.3252V33.0356H3.77618V21.5962C6.32681 19.8485 9.19628 18.8953 12.2252 19.0541C13.1816 19.0541 14.1381 19.213 14.9352 19.3719Z" fill="#00A0C1"/>
<path d="M12.2246 14.129C12.5435 14.129 12.8623 14.129 13.1811 13.9702V13.0169C13.1811 12.2225 13.1811 11.4281 13.3405 10.7926C13.0217 10.9514 12.5435 10.9514 12.2246 10.9514C10.1522 10.9514 8.39869 9.20375 8.39869 7.13831C8.39869 5.07287 10.1522 3.3252 12.2246 3.3252C13.8188 3.3252 15.2535 4.27848 15.8912 5.70839C16.5288 4.91399 17.4853 4.1196 18.2824 3.48408C16.21 0.147597 11.9058 -0.964563 8.5581 1.10088C5.2104 3.16632 4.09449 7.45607 6.16688 10.7926C7.4422 12.858 9.674 14.129 12.2246 14.129Z" fill="#00A0C1"/>
<path d="M37.4128 29.3812L37.094 28.9046C33.9057 25.4092 29.4421 23.3438 24.6596 23.5027C19.8772 23.3438 15.2542 25.4092 12.0659 28.9046L11.7471 29.3812V41.4561C11.7471 42.886 12.863 44.1571 14.4571 44.1571H34.8622C36.2969 44.1571 37.5722 42.886 37.5722 41.4561V29.3812H37.4128ZM34.2245 40.9795H14.9354V30.4934C17.486 27.9513 20.9931 26.6803 24.6596 26.6803C28.1668 26.5214 31.6739 27.9513 34.2245 30.4934V40.9795Z" fill="#00A0C1"/>
</g>
<defs>
<clipPath id="clip0_2_77">
<rect width="48" height="44.2105" fill="white" transform="translate(0.5)"/>
</clipPath>
</defs>
</svg>
