<svg width="48" height="48" viewBox="0 0 48 48" fill="none" xmlns="http://www.w3.org/2000/svg">
<rect width="48" height="48" fill="white"/>
<path d="M41.9688 22.753C42.6406 22.753 43.3125 22.2157 43.3125 21.4093V18.4531C44.9249 17.9158 46 16.4375 46 14.6905C46 12.4062 44.253 10.6593 41.9688 10.6593C39.6845 10.6593 37.9375 12.4062 37.9375 14.6905C37.9375 16.4375 39.0126 17.9154 40.625 18.4531V20.0655H32.5625V17.7812C32.5625 17.1094 31.8906 16.4375 31.2187 16.4375H30.8156V10.7938C32.428 10.2565 33.5031 8.77821 33.5031 7.03125C33.5031 4.88108 31.7561 3 29.4718 3C27.1875 3 25.4406 4.88108 25.4406 7.03125C25.4406 8.77821 26.5156 10.2561 28.1281 10.7938V16.4375H22.7531V8.50954C22.7531 7.70316 22.2157 7.16579 21.4093 7.16579H15.7656C15.2283 5.55338 13.75 4.47829 12.003 4.47829C9.85288 4.47829 7.97179 6.35937 7.97179 8.50954C7.97179 10.7938 9.85288 12.5408 12.003 12.5408C13.75 12.5408 15.2279 11.4657 15.7656 9.85329H20.0655V16.4375H17.7813C17.1094 16.4375 16.4375 17.1094 16.4375 17.7812V22.4844H8.375V22.0812C9.98742 21.5438 11.0625 20.0655 11.0625 18.3186C11.0625 16.1684 9.31554 14.2873 7.03125 14.2873C4.74696 14.2873 3 16.1684 3 18.3186C3 20.0655 4.07508 21.5434 5.6875 22.0812V23.8281C5.6875 24.5 6.35938 25.1719 7.03125 25.1719H16.4375V29.875H10.7938C10.2565 28.2626 8.77821 27.1875 7.03125 27.1875C4.74696 27.1875 3 29.0686 3 31.2188C3 33.503 4.74696 35.25 7.03125 35.25C8.77821 35.25 10.2561 34.1749 10.7938 32.5625H20.0657V39.1467H15.7658C15.2284 37.5343 13.7502 36.4592 12.0032 36.4592C9.85304 36.4592 7.97196 38.2062 7.97196 40.4905C7.97196 42.7747 9.85304 44.5217 12.0032 44.5217C13.7502 44.5217 15.228 43.4466 15.7658 41.8342H21.4095C22.2159 41.8342 22.7532 41.2968 22.7532 40.4905V32.5625H28.1282V38.2062C26.5158 38.7435 25.4407 40.2218 25.4407 41.9688C25.4407 44.253 27.1877 46 29.472 46C31.7563 46 33.5032 44.253 33.5032 41.9688C33.5032 40.2218 32.4281 38.7439 30.8157 38.2062V32.5625H31.2189C31.8908 32.5625 32.5627 32.0251 32.5627 31.2188V28.6658H39.1469V35.5191C37.5345 36.0565 36.4594 37.5347 36.4594 39.2817C36.4594 41.566 38.2063 43.3129 40.4906 43.3129C42.7749 43.3129 44.5219 41.566 44.5219 39.2817C44.5219 37.5347 43.4468 36.0568 41.8344 35.5191V27.3221C41.8344 26.5157 41.1625 25.9783 40.4906 25.9783H32.5627V22.7535L41.9688 22.753ZM41.9688 13.3468C42.6406 13.3468 43.3125 14.0187 43.3125 14.6905C43.3125 15.4969 42.6406 16.0343 41.9688 16.0343C41.2969 16.0343 40.625 15.4969 40.625 14.6905C40.625 13.8845 41.1624 13.3468 41.9688 13.3468ZM12.0031 9.85321C11.3312 9.85321 10.6594 9.31584 10.6594 8.50946C10.6594 7.70307 11.3312 7.16571 12.0031 7.16571C12.8095 7.16571 13.3469 7.70307 13.3469 8.50946C13.3469 9.31551 12.675 9.85321 12.0031 9.85321ZM7.03132 19.5282C6.35944 19.5282 5.68757 18.9908 5.68757 18.1845C5.68757 17.3781 6.35944 16.8407 7.03132 16.8407C7.70319 16.8407 8.37507 17.3781 8.37507 18.1845C8.37507 18.9905 7.70319 19.5282 7.03132 19.5282ZM7.03132 32.5626C6.35944 32.5626 5.68757 32.0252 5.68757 31.2188C5.68757 30.5469 6.35944 29.8751 7.03132 29.8751C7.70319 29.8751 8.37507 30.5469 8.37507 31.2188C8.37507 31.8907 7.70319 32.5626 7.03132 32.5626ZM12.0031 41.8344C11.3312 41.8344 10.6594 41.2971 10.6594 40.4907C10.6594 39.8188 11.3312 39.1469 12.0031 39.1469C12.8095 39.1469 13.3469 39.8188 13.3469 40.4907C13.3469 41.2971 12.675 41.8344 12.0031 41.8344ZM19.1251 29.8751V19.1251H29.8751V29.8751H19.1251ZM29.472 43.3126C28.8001 43.3126 28.1282 42.7752 28.1282 41.9688C28.1282 41.2969 28.8001 40.6251 29.472 40.6251C30.2783 40.6251 30.8157 41.2969 30.8157 41.9688C30.8157 42.6407 30.1438 43.3126 29.472 43.3126ZM29.472 8.37508C28.8001 8.37508 28.1282 7.83772 28.1282 7.03133C28.1282 6.35946 28.8001 5.68758 29.472 5.68758C30.2783 5.68758 30.8157 6.35946 30.8157 7.03133C30.8157 7.70321 30.1438 8.37508 29.472 8.37508ZM40.4907 37.9376C41.1626 37.9376 41.8345 38.6094 41.8345 39.2813C41.8345 40.0877 41.1626 40.6251 40.4907 40.6251C39.6843 40.6251 39.147 40.0877 39.147 39.2813C39.147 38.6094 39.6847 37.9376 40.4907 37.9376Z" fill="#00A0C1"/>
</svg>
