<svg width="48" height="48" viewBox="0 0 48 48" fill="none" xmlns="http://www.w3.org/2000/svg">
<path d="M45.8092 16.8536L47.7756 14.8747C47.9973 14.6516 48.0613 14.319 47.9379 14.0311C47.8153 13.745 47.53 13.5586 47.2146 13.5586H47.2111L40.5318 13.5917C40.1436 13.5938 39.8232 13.8726 39.7621 14.2383C38.5583 12.5304 37.1049 10.998 35.4547 9.69569H39.6865C40.0033 9.69569 40.2886 9.50823 40.4109 9.22071C40.5332 8.93283 40.4681 8.6009 40.2461 8.37821L38.2818 6.41382L40.2482 4.4349C40.4699 4.21185 40.5339 3.87922 40.4105 3.59134C40.2872 3.30346 40.0011 3.11459 39.6833 3.11882L33.0041 3.15159C32.5718 3.15405 32.2221 3.49937 32.2221 3.92608V7.57938C30.1762 6.48637 27.962 5.72242 25.671 5.31929C25.6545 5.29886 25.6384 5.27842 25.6198 5.25939L23.6555 3.295L25.6219 1.31608C25.8436 1.09303 25.9076 0.760401 25.7843 0.472521C25.6616 0.1864 25.3763 0 25.061 0H25.0574L18.3775 0.0327697C17.9456 0.0348838 17.5959 0.380555 17.5959 0.806909V5.38833C16.15 5.66916 14.7367 6.09411 13.3795 6.65544C13.3706 6.58638 13.3534 6.51767 13.3252 6.45177C13.2025 6.16565 12.9172 5.97925 12.6019 5.97925H12.5983L5.91981 6.01202C5.48789 6.01414 5.13822 6.35981 5.13822 6.78616V12.6301C1.81275 16.503 0 21.3571 0 26.491C0 32.236 2.2704 37.6376 6.39209 41.7004C10.5141 45.7628 15.9945 48 21.825 48C27.6543 48 33.1353 45.7625 37.2579 41.7004C41.3799 37.6377 43.6499 32.237 43.6499 26.491C43.6499 24.3205 43.3232 22.1879 42.6789 20.1358H47.2147C47.5314 20.1358 47.8168 19.9483 47.939 19.6608C48.0613 19.3729 47.9963 19.041 47.7742 18.8183L45.8092 16.8536ZM34.3313 10.8099C34.1611 10.8663 33.9806 10.9258 33.7936 10.9892V10.4082C33.9749 10.5393 34.1543 10.6728 34.3313 10.8099ZM36.621 6.95893L37.8095 8.14711H33.7939V4.69569L37.8091 4.67631L36.6196 5.87333C36.3196 6.17566 36.32 6.65803 36.621 6.95893ZM21.9945 3.83983L23.183 5.02801H19.1675V1.57731L23.1826 1.55793L21.9931 2.75495C21.6927 3.05621 21.6939 3.53929 21.9945 3.83983ZM17.5961 8.99874C17.2911 9.03292 16.9564 9.08648 16.5842 9.16399C13.858 9.72953 13.858 9.72953 12.4221 9.22354C12.2826 9.17457 12.1278 9.11995 11.9565 9.0604C13.7206 8.08961 15.6231 7.38493 17.596 6.97089L17.5961 8.99874ZM9.53428 8.73376C9.23467 9.03539 9.23538 9.51847 9.53571 9.81866L10.7241 11.0068H6.70862V7.55541L10.7238 7.53603L9.53428 8.73376ZM5.92351 18.2594C6.35757 18.2594 6.70903 17.9127 6.70903 17.4853V13.2083C6.9096 12.9867 7.1159 12.7696 7.32792 12.5554H12.602C12.9188 12.5554 13.2041 12.3679 13.3264 12.0804C13.4486 11.7925 13.3836 11.4606 13.1615 11.2379L12.9398 11.0162C13.9234 11.2692 14.6024 11.1572 16.9079 10.679C17.1631 10.6265 17.3905 10.5864 17.5961 10.5575V11.5061C17.5961 11.9338 17.9479 12.2802 18.3816 12.2802C18.8153 12.2802 19.1671 11.9335 19.1671 11.5061V10.6477C19.4271 10.7566 19.6269 10.9183 19.8547 11.1023C20.3885 11.5339 21.0535 12.0709 22.464 12.269C22.7522 12.3095 23.5191 12.417 23.6689 12.5977C23.7326 12.6745 23.8191 12.9434 23.6822 13.8849C23.6639 14.01 23.6485 14.1401 23.6325 14.2718C23.5295 15.1355 23.439 15.4561 23.1365 15.5362C22.7772 15.6313 22.3768 15.713 21.9534 15.7997C20.9477 16.0048 19.9079 16.2176 19.1728 16.6701C18.9705 16.7948 18.7381 16.9114 18.4924 17.0358C17.4806 17.5464 16.0944 18.2444 15.7004 20.2328C15.6032 20.7226 14.8105 20.8737 13.7007 21.033C12.6055 21.1908 11.4725 21.3533 11.0363 22.2811C10.6269 23.1514 11.1446 24.1447 11.5698 24.8166L11.7914 25.1676C12.5501 26.3706 12.9309 26.9745 13.4919 27.3188C13.8526 27.5404 14.2213 27.6123 14.6542 27.6123C14.9874 27.6123 15.3589 27.5697 15.7948 27.5196C16.0089 27.495 16.2546 27.4671 16.5295 27.4393V34.6997C16.5295 35.1275 16.8813 35.4739 17.315 35.4739C17.7491 35.4739 18.1005 35.1271 18.1005 34.6997V29.7702H23.4061C24.1723 30.3026 24.5903 30.8231 24.5605 31.2153C24.4 33.3013 23.4078 34.4545 22.3571 35.6762C21.3495 36.8474 20.308 38.0589 20.0602 40.031C19.7752 42.3031 18.9529 43.3302 18.6887 43.3372H18.6873C18.5078 43.3372 17.6658 42.6085 17.048 39.1948C16.2871 34.9904 14.9689 34.1091 13.9095 33.401C13.0868 32.8509 12.4926 32.4538 12.4589 29.482C12.435 27.3505 11.5443 26.5267 10.894 25.9259C10.7956 25.835 10.7027 25.7491 10.6201 25.6655C10.3895 25.4309 10.0477 25.236 9.57572 24.9661C8.03115 24.0841 5.18374 22.4562 3.53977 17.8804C3.99635 16.9407 4.53013 16.0354 5.13688 15.1715V17.4837C5.1376 17.9132 5.48942 18.2596 5.92347 18.2596L5.92351 18.2594ZM20.9289 27.0346L22.1174 28.2232H18.1019V24.7718L22.117 24.7524L20.9275 25.9494C20.6279 26.251 20.6286 26.7341 20.9289 27.0346ZM21.8249 46.4522C10.6574 46.4522 1.57118 37.4979 1.57118 26.4916C1.57118 24.2189 1.95518 22.0063 2.68995 19.9222C4.57739 23.9028 7.36009 25.4919 8.7896 26.3077C9.06742 26.4659 9.4128 26.6632 9.49396 26.745C9.60229 26.8549 9.71348 26.9574 9.82074 27.0572C10.3849 27.579 10.8726 28.03 10.8898 29.5019C10.9299 33.0199 11.7629 33.8384 13.0293 34.6848C13.8867 35.2577 14.8585 35.9079 15.5031 39.4688C16.1538 43.0647 17.2247 44.8874 18.6859 44.8874C18.7013 44.8874 18.717 44.8874 18.7324 44.8871C20.1364 44.8501 21.2705 43.0196 21.6212 40.2236C21.8114 38.7098 22.6202 37.769 23.5573 36.6795C24.6696 35.3867 25.9296 33.9212 26.1287 31.3349C26.1949 30.4723 25.7361 29.6379 24.7651 28.8472C24.7358 28.702 24.6646 28.5653 24.5549 28.455L22.5905 26.4906L24.557 24.5117C24.7787 24.2886 24.8427 23.956 24.7193 23.6681C24.5959 23.3803 24.3078 23.1949 23.9921 23.1956L17.3136 23.2284C16.8817 23.2305 16.532 23.5762 16.532 24.0025V25.8852C16.1805 25.919 15.8752 25.9535 15.6146 25.9835C14.8602 26.0702 14.4898 26.1075 14.3246 26.006C14.0743 25.8524 13.6978 25.2552 13.1279 24.3517L12.9052 23.9986C12.3996 23.1995 12.4632 22.9366 12.4622 22.9366C12.5912 22.7587 13.4622 22.6336 13.9298 22.5663C15.1948 22.3841 16.9267 22.1346 17.2446 20.5304C17.4924 19.2806 18.25 18.8986 19.21 18.4144C19.4743 18.2812 19.7481 18.1428 20.0073 17.9835C20.5043 17.6776 21.4043 17.4941 22.2745 17.3161C22.7018 17.2287 23.1434 17.1389 23.5474 17.0314C24.9314 16.6643 25.0898 15.3334 25.1949 14.4525C25.2088 14.3341 25.2231 14.2167 25.2392 14.104C25.3926 13.0504 25.3908 12.2245 24.8863 11.6174C24.3894 11.0191 23.5627 10.8591 22.6871 10.7361C21.7118 10.5994 21.3135 10.2773 20.8526 9.90525C20.3535 9.50179 19.8776 9.17234 19.1686 9.03034V6.70196C19.5927 6.64664 20.0185 6.60507 20.4465 6.57688H23.1817C26.4145 6.78724 29.5083 7.77453 32.2238 9.37918V11.621C31.7444 11.8563 31.2878 12.1351 30.9113 12.474C29.4329 13.806 29.9881 16.522 30.346 17.3081C30.6943 18.0727 31.6946 18.0907 35.2067 17.7539C35.6408 17.7123 36.1324 17.6672 36.2454 17.6672C36.9226 17.6936 36.9955 17.9378 37.0202 18.0178C37.1436 18.4293 36.8307 19.0653 36.648 19.2366C35.9433 19.3409 32.3429 19.275 30.9431 18.8272C30.3239 18.6288 29.6052 18.9191 28.972 19.6239C28.6277 20.0069 28.0943 20.7419 28.3878 21.3649C28.5348 21.6764 28.1672 22.2458 27.7793 22.8487C26.8997 24.2141 25.4274 26.4988 29.074 28.8551C29.124 28.8878 29.178 28.9139 29.2341 28.9344C30.2732 29.31 31.2786 29.3269 32.0862 29.3406C33.0298 29.3565 33.5796 29.3822 33.91 29.7205C34.3495 30.1704 34.5533 31.2948 34.5154 33.0623C34.5036 33.6028 34.5382 34.0444 34.5719 34.471C34.6455 35.4083 34.7091 36.218 34.2722 37.9506C34.0709 38.7487 34.3731 39.4665 35.0806 39.8713C35.4864 40.1035 35.9866 40.2138 36.5187 40.2156C32.8242 44.0539 27.6038 46.4521 21.8244 46.4521L21.8249 46.4522ZM38.3727 37.988C37.5693 38.6804 36.3379 38.8006 35.8691 38.5321C35.7855 38.4842 35.7601 38.4694 35.7966 38.3238C36.2946 36.3482 36.2152 35.333 36.1376 34.3509C36.1055 33.9433 36.0751 33.5585 36.0854 33.0944C36.1344 30.8075 35.8119 29.4351 35.0411 28.6458C34.2416 27.8277 33.159 27.8093 32.1121 27.7917C31.3774 27.779 30.6187 27.7663 29.8567 27.5091C27.5957 26.0189 28.1978 25.0845 29.1038 23.6778C29.629 22.8621 30.2193 21.9467 29.9093 20.9632C30.0394 20.7384 30.3512 20.4033 30.5361 20.3244C32.2569 20.8374 36.3285 20.9326 37.1119 20.7211C37.9818 20.4858 38.7323 19.0858 38.6 17.9466C38.4731 16.8536 37.615 16.1707 36.3054 16.1203C36.113 16.1129 35.763 16.145 35.0529 16.2133C34.2917 16.2866 32.4046 16.467 31.6824 16.4043C31.4764 15.6792 31.3298 14.1943 31.9695 13.6174C32.0471 13.548 32.1318 13.4811 32.2219 13.4169V14.6262C32.2219 15.054 32.5737 15.4004 33.0074 15.4004C33.4415 15.4004 33.7929 15.0536 33.7929 14.6262V12.6371C34.159 12.4997 34.5223 12.3799 34.8437 12.2742C35.1816 12.1632 35.4662 12.0691 35.705 11.9747C37.3186 13.4677 38.694 15.2256 39.7495 17.1971V25.0664C39.7495 25.4942 40.1014 25.8405 40.535 25.8405C40.9691 25.8405 41.3206 25.4938 41.3206 25.0664V21.073C41.8229 22.8289 42.0782 24.6453 42.0782 26.4916C42.0789 30.7686 40.7063 34.7356 38.3727 37.9883L38.3727 37.988ZM41.3213 18.5877V15.1362L45.3364 15.1169L44.1469 16.3139C43.8473 16.6155 43.848 17.0986 44.1483 17.3988L45.3368 18.587H41.3213L41.3213 18.5877Z" fill="#00A0C1"/>
</svg>
